<!--?xml version="1.0" encoding="utf-8"?-->
<!-- Generator: Adobe Illustrator 18.1.1, SVG Export Plug-In . SVG Version: 6.00 Build 0)  -->

<svg version="1.1" id="_x32_" xmlns="http://www.w3.org/2000/svg" xmlns:xlink="http://www.w3.org/1999/xlink" x="0px" y="0px" viewBox="0 0 512 512" style="width: 256px; height: 256px; opacity: 1;" xml:space="preserve">
<style type="text/css">
	.st0{fill:#4B4B4B;}
</style>
<g>
	<path class="st0" d="M351.995,204.331c56.425,0,102.171-45.746,102.171-102.171C454.166,45.746,408.42,0,351.995,0
		c-56.415,0-102.16,45.746-102.16,102.16C249.835,158.585,295.58,204.331,351.995,204.331z" style="fill: rgb(255, 167, 33);"></path>
	<path class="st0" d="M126.812,97.886c-42.063,0-76.169,34.105-76.169,76.168c0,42.073,34.106,76.179,76.169,76.179
		c42.063,0,76.169-34.106,76.169-76.179C202.981,131.991,168.875,97.886,126.812,97.886z" style="fill: rgb(255, 167, 33);"></path>
	<path class="st0" d="M26.128,334.282v57.474c0,48.534,39.342,87.877,87.877,87.877h71.835V313.702l0.7-3.275
		c1.429-6.656,3.868-13.905,7.288-21.406c-16.208-12.165-38.595-21.28-67.881-21.28C62.905,267.742,31.385,309.777,26.128,334.282z" style="fill: rgb(255, 167, 33);"></path>
	<path class="st0" d="M351.995,227.817c-84.544,0-126.822,56.366-133.866,89.247v147.003c0,26.468,21.465,47.932,47.932,47.932
		h171.878c26.468,0,47.932-21.465,47.932-47.932V317.064C478.827,284.183,436.55,227.817,351.995,227.817z" style="fill: rgb(255, 167, 33);"></path>
</g>
</svg>
